<?xml version="1.0" encoding="utf-8"?>
<!-- Generator: Adobe Illustrator 25.0.1, SVG Export Plug-In . SVG Version: 6.00 Build 0)  -->
<svg version="1.1" id="Ebene_1" xmlns="http://www.w3.org/2000/svg" xmlns:xlink="http://www.w3.org/1999/xlink" x="0px" y="0px"
	 viewBox="0 0 1452.4 1080" style="enable-background:new 0 0 1452.4 1080;" xml:space="preserve">
<style type="text/css">
	.st0{opacity:0.1;fill:#34C3EA;enable-background:new    ;}
	.st1{fill:#CCE9FF;}
	.st2{fill:#EFACA5;}
	.st3{fill:#E7AD87;}
	.st4{fill:#2A94F4;}
	.st5{fill:#0B4870;}
	.st6{fill:#FAB9AF;}
	.st7{fill:#FFBE55;}
	.st8{fill:#FFFFFF;}
	.st9{fill:#31A1F4;}
	.st10{opacity:0.39;fill:#FFFFFF;enable-background:new    ;}
</style>
<g id="Background">
	<path class="st0" d="M199,916.1C130.2,817.9,27.9,697.2,54.9,489.2c30.9-237.7,388.4-615.1,770.8-332.1
		C975.9,268.4,984.2,522,1185,457s335.9,439.6,34.3,505S329.5,1102.5,199,916.1z"/>
	<ellipse class="st0" cx="708.7" cy="980.2" rx="531.1" ry="53.5"/>
</g>
<g id="Character">
	<g>
		<g>
			<path class="st1" d="M882.6,750.2c-15.7-11.5-131.3-7.2-142,0c-10.9,7.2,12.2,27.6,48.7,48.2c15.3,8.7,24.7,17.2,45.6,1.3
				C855.7,784,893.2,757.8,882.6,750.2z"/>
			<rect x="795.9" y="791.5" class="st1" width="30.7" height="139.2"/>
			<path class="st1" d="M714.7,955.4h189.3c3.4,0,6-2.6,6-6l0,0c0-2.9-2.2-5.4-5-5.9l-78.4-12.6H796l-82,12.6
				c-2.9,0.4-5.1,2.9-5.1,5.9l0,0C708.7,952.6,711.3,955.4,714.7,955.4z"/>
			<path class="st1" d="M882.6,349.5c-95.4-4.1-123.3,82.9-128.8,138.9c-5.4,55.9-20.4,106.4-64.2,130c-44,23.5-85.4,34.3-60.1,72.2
				c25.3,37.9,112.2,76.2,190.2,74.2c78.1-1.8,157.9-43.7,179.6-155.5C1020.9,497.4,977.1,353.7,882.6,349.5z"/>
		</g>
	</g>
	<g>
		<g>
			<g>
				<polygon class="st2" points="799.1,935.2 804.8,955.8 777,964.2 768.2,938.9 				"/>
				<polygon class="st2" points="630.8,920.4 630.8,936.9 655.5,936.9 658.3,920.4 				"/>
				<g>
					<g>
						<path class="st2" d="M820.4,443.3l-37.3,92l-0.9,2.1c-2.2,5.4-7.5,8.8-13.1,8.8L663,545.5c-4.3,0-7.8-3.5-7.8-7.8
							c0-3.8,2.9-7.1,6.6-7.6L767,514.6l-14,10.9l25.1-96.1c3.1-11.9,15.3-19.1,27.2-15.9c11.9,3.1,19.1,15.3,15.9,27.2
							C821.1,441.6,820.7,442.5,820.4,443.3z"/>
						<path class="st3" d="M674.6,528.2l-36.3-0.7c-9,0-16.2,8.1-16.2,18.1l0,0H675L674.6,528.2z"/>
					</g>
					<g>
						<g>
							<path class="st4" d="M761.7,454.5l58.1,14.1l9.6-51.7c2.5-14-7.1-27.2-21.3-29.3l0,0c-12.1-1.8-23.5,5-27.6,16.3L761.7,454.5
								z"/>
						</g>
					</g>
				</g>
				<path class="st5" d="M821.7,555.2l-178.9,90.9c-16.6,8.4-26.6,25.9-25.6,44.5l13.5,229.9h27.5l37-245.9l139.4-97.8L821.7,555.2z
					"/>
				<path class="st5" d="M790.1,241.2c0,0,58.7-26,90.1,58.1c29.3,77.9-3.2,62.6-50.6,62.9c-38.5,0.3-106.6,36.8-89.4-11.3
					c12.3-34.3,5.9-56,5.9-56L790.1,241.2z"/>
				<path class="st4" d="M829.8,364l-25.7,11.5c-15.3,6.8-25.1,22.1-25,38.8c0.4,33.8,8.1,117.6,36.6,149.8h87
					c13.5-59.4,5.7-150.7,5.7-150.7c0.9-22.3-15.6-41.8-37.8-44.4L829.8,364z"/>
				<g>
					<g>
						<g>
							<path class="st2" d="M832.3,391.7L832.3,391.7c-9.1,1-17.3-5.4-18.4-14.4l-7.2-55.3l33.1-3.8l7.1,54.8
								C848,382.3,841.4,390.7,832.3,391.7z"/>
							<path class="st6" d="M805,363.2l-1.3,0.1c-22.1,2.9-42.2-12.6-45.1-34.7l-6.3-48.2l81.1-10.6l6.3,48.2
								C842.5,340.1,827,360.4,805,363.2z"/>
						</g>
						<path class="st5" d="M842.3,299.6l-6.9,14.4c0,0-9.3,7.9-11.9-12.1c-2.2-17.1-14.6-14.1-14.6-14.1s-42.3,32-67.2,10
							c-19.6-17.3,12.1-49.1,48.4-56.6l47.6,20.7L842.3,299.6z"/>
						<path class="st6" d="M830.3,312.1c1,8.8,3.2,15.3,10.6,14.4c0,0,7.4-7.4,8.4-17.8c1-8.8-0.3-15-7.6-14.1
							C834.4,295.4,829.2,303.2,830.3,312.1z"/>
					</g>
				</g>
				<path class="st5" d="M902.7,564h-87l-139.2,84.1c-16.5,9.8-22.9,30.4-15.1,48.1l106.9,242.7l30.9-3.7L741.6,701
					c48.2-2.1,137.6-9.3,161-35.4C942.3,621.5,902.7,564,902.7,564z"/>
				<g>
					<path class="st7" d="M606.1,411.7l49.7,133.3H494.5l-45.9-125.7c-1.3-3.8,1.5-7.8,5.4-7.8h152V411.7z"/>
					<path class="st7" d="M606.1,411.7h7.8c4.1,0,7.8,2.6,9.3,6.5l46.7,126.9h-14.1L606.1,411.7z"/>
					<path class="st7" d="M498.3,558h157.4v-12.8H494.9v9.4C494.9,556.4,496.4,558,498.3,558z"/>
					<path class="st7" d="M655.8,558h99.5c3.5,0,6.5-2.9,6.5-6.5l0,0c0-3.5-2.9-6.5-6.5-6.5h-99.5V558z"/>
					<path class="st8" d="M565.6,478c3.1,9.3-0.6,18.7-8.2,21.2c-7.6,2.5-16.2-2.9-19.3-12.2c-3.1-9.3,0.6-18.7,8.2-21.2
						C554,463.3,562.7,468.8,565.6,478z"/>
				</g>
				<g>
					<g>
						<path class="st6" d="M888.5,440.8l-37.3,93.8l-0.9,2.1c-2.2,5.6-7.6,9-13.2,9l-106.3-0.7c-4.3,0-7.8-3.5-7.8-7.9
							c0-4,2.9-7.2,6.8-7.6l105.1-15.6l-14.1,11l25-97.9c3.1-12.1,15.3-19.3,27.3-16.2s19.3,15.3,16.2,27.3
							C889.2,438.9,888.8,440,888.5,440.8z"/>
						<path class="st6" d="M742.3,527.4l-36.3-0.7c-9,0-16.2,8.2-16.2,18.4l0,0h52.9L742.3,527.4z"/>
					</g>
					<g>
						<g>
							<path class="st9" d="M829.5,452.5l58.1,14.4l9.6-52.8c2.5-14.1-7.1-27.6-21.3-29.7l0,0c-12.1-1.8-23.5,5.1-27.6,16.6
								L829.5,452.5z"/>
						</g>
					</g>
				</g>
				<path class="st5" d="M758.8,944.5l-13.5,13.4l-30.4,7.4c-3.1,0.7-5.7,3.1-6.8,6.2l-1.6,4.4c-0.7,2.2,0.9,4.4,3.2,4.4l98.1-2.4
					c3.2,0,5.7-2.8,5.4-6l-7.8-27.8l-14.8,3.5c-5,1.6-10.4,1-14.8-1.5l-5.3-3.1C766.7,940.8,762,941.4,758.8,944.5z"/>
				<path class="st5" d="M618.3,925.2l-13.5,13.4l-30.4,7.4c-3.1,0.7-5.7,3.1-6.8,6.2l-1.6,4.4c-0.7,2.2,0.9,4.4,3.2,4.4l88.6-1.9
					c3.2,0,5.7-2.8,5.4-6l-2.4-28.4l-10.9,3.7c-5,1.6-10.4,1-14.8-1.5l-5.3-3.1C626.1,921.6,621.4,922.2,618.3,925.2z"/>
			</g>
		</g>
	</g>
</g>
<g id="Objects">
	<g>
		<path class="st5" d="M520.4,980.2c0.3,0,0.7,0,1-0.1c3.4-0.6,5.7-3.4,5.1-6.5l-80.1-391.5c-0.6-3.1-3.8-5.1-7.4-4.6
			c-3.4,0.6-5.7,3.4-5.1,6.5l80.3,391.5C514.6,978.3,517.3,980.2,520.4,980.2z"/>
		<path class="st5" d="M313.7,980.2c3.1,0,5.7-1.9,6.2-4.7L405.4,584c0.6-3.1-1.8-6-5.1-6.5c-3.5-0.4-6.8,1.6-7.4,4.6l-85.6,391.5
			c-0.6,3.1,1.8,6,5.1,6.5C312.9,980.2,313.2,980.2,313.7,980.2z"/>
		<rect x="349.1" y="555.8" class="st5" width="752.2" height="36.5"/>
		<rect x="339.6" y="831.7" class="st5" width="154.2" height="11"/>
		<path class="st5" d="M1095.2,980.2c0.3,0,0.7,0,1-0.1c3.4-0.6,5.7-3.4,5.1-6.5l-80-391.5c-0.6-3.1-3.8-5.1-7.4-4.6
			c-3.4,0.6-5.7,3.4-5.1,6.5l80.1,391.5C1089.4,978.3,1092.2,980.2,1095.2,980.2z"/>
		<path class="st5" d="M888.5,980.2c3.1,0,5.7-1.9,6.2-4.7L980.2,584c0.6-3.1-1.8-6-5.1-6.5c-3.5-0.4-6.8,1.6-7.4,4.6l-85.6,391.5
			c-0.6,3.1,1.8,6,5.1,6.5C887.7,980.2,888,980.2,888.5,980.2z"/>
		<rect x="914.5" y="831.7" class="st5" width="154.2" height="11"/>
	</g>
	<g>
		<path class="st7" d="M413.2,415.3h-89.5c-8.5,0-15.4-6.9-15.4-15.4v-89.5c0-8.5,6.9-15.4,15.4-15.4h89.5c8.5,0,15.4,6.9,15.4,15.4
			v89.5C428.6,408.4,421.7,415.3,413.2,415.3z"/>
		<path class="st10" d="M398,398.9h-78.5c-6.8,0-12.3-5.6-12.3-12.3v-78.5c0-6.8,5.6-12.3,12.3-12.3H398c6.8,0,12.3,5.6,12.3,12.3
			v78.5C410.4,393.4,405,398.9,398,398.9z"/>
		<g>
			<path class="st8" d="M379.4,369.7l-4.4-12.5h-22.1l-4.4,12.5h-13.8l21.5-52.8h15.7l21.5,52.8H379.4z M372,347.9
				c-4.1-11.3-6.3-17.8-6.9-19.3c-0.4-1.5-0.9-2.6-1-3.5c-0.9,3.1-3.5,10.6-7.8,22.8H372z"/>
		</g>
	</g>
	<g>
		<path class="st7" d="M631.8,165.6h-89.7c-8.5,0-15.4-6.9-15.4-15.4V60.7c0-8.5,6.9-15.4,15.4-15.4h89.5c8.5,0,15.4,6.9,15.4,15.4
			v89.5C647.1,158.7,640.2,165.6,631.8,165.6z"/>
		<path class="st10" d="M617.8,149.3h-78.5c-6.8,0-12.3-5.6-12.3-12.3V58.5c0-6.8,5.6-12.3,12.3-12.3h78.5c6.8,0,12.3,5.6,12.3,12.3
			V137C630.2,143.7,624.7,149.3,617.8,149.3z"/>
		<g>
			<path class="st8" d="M600.6,105.7c0,4.7-1.9,8.5-5.9,11.2c-4,2.8-9.4,4.1-16.5,4.1c-6.5,0-12.2-1-17.2-3.2v-10.3
				c4.1,1.6,7.5,2.6,10.4,3.4c2.9,0.7,5.4,1,7.8,1c2.8,0,5-0.4,6.5-1.5c1.5-0.9,2.2-2.4,2.2-4.1c0-1-0.3-1.9-1-2.8
				c-0.7-0.7-1.6-1.6-2.9-2.4s-4-1.9-7.8-3.5c-3.7-1.5-6.5-2.9-8.4-4.4c-1.9-1.3-3.4-2.9-4.4-4.9c-1.2-1.9-1.6-4-1.6-6.5
				c0-4.7,1.8-8.2,5.4-11c3.7-2.6,8.7-4,15.1-4c3.1,0,6.2,0.3,9,1c2.8,0.7,5.9,1.6,9,2.8l-4.1,8.7c-3.2-1.2-5.9-1.9-8.1-2.4
				c-2.1-0.4-4.3-0.7-6.2-0.7c-2.5,0-4.3,0.4-5.6,1.5c-1.3,1-1.9,2.2-1.9,3.8c0,1,0.3,1.9,0.7,2.5c0.6,0.7,1.3,1.5,2.5,2.1
				c1.2,0.6,3.8,1.9,8.1,3.7c5.7,2.4,9.6,4.7,11.6,7.1C599.6,99.3,600.6,102.1,600.6,105.7z"/>
		</g>
	</g>
	<g>
		<path class="st7" d="M1235.3,555.4h-89.5c-8.5,0-15.4-6.9-15.4-15.4v-89.5c0-8.5,6.9-15.4,15.4-15.4h89.5
			c8.5,0,15.4,6.9,15.4,15.4v89.5C1250.7,548.5,1243.8,555.4,1235.3,555.4z"/>
		<path class="st10" d="M1221.4,539h-78.5c-6.8,0-12.3-5.6-12.3-12.3v-78.5c0-6.8,5.6-12.3,12.3-12.3h78.5c6.8,0,12.3,5.6,12.3,12.3
			v78.5C1233.8,533.6,1228.2,539,1221.4,539z"/>
		<g>
			<path class="st8" d="M1181,509.9h-12.6v-52.5h34.7v9.1H1181v13.5h20.6v9.1H1181V509.9z"/>
		</g>
	</g>
	<g>
		<path class="st7" d="M1053.6,261.3H964c-8.5,0-15.4-6.9-15.4-15.4v-89.5c0-8.5,6.9-15.4,15.4-15.4h89.5c8.5,0,15.4,6.9,15.4,15.4
			v89.5C1069,254.4,1062.1,261.3,1053.6,261.3z"/>
		<path class="st10" d="M1039.2,244.1h-78.5c-6.8,0-12.3-5.6-12.3-12.3v-78.5c0-6.8,5.6-12.3,12.3-12.3h78.5
			c6.8,0,12.3,5.6,12.3,12.3v78.5C1051.5,238.6,1046.1,244.1,1039.2,244.1z"/>
		<g>
			<path class="st8" d="M1033.6,188.3c0,8.7-2.8,15.3-8.5,19.8c-5.7,4.6-13.8,6.9-24.6,6.9h-17.2v-52.5h19c9.8,0,17.6,2.2,23.1,6.8
				C1030.8,173.7,1033.6,180,1033.6,188.3z M1020.2,188.6c0-11.3-5.7-16.9-17.2-16.9h-6.9v34.3h5.6
				C1014,205.8,1020.2,200,1020.2,188.6z"/>
		</g>
	</g>
</g>
</svg>
