<svg xmlns="http://www.w3.org/2000/svg" width="32" height="32" viewBox="0 0 32 32"><g transform="translate(-82.688 -1955.613)"><g transform="translate(-494.312 680.75)"><g transform="translate(50.105 124.423) scale(.90822)"><path fill="#fcd062" fill-rule="evenodd" d="m 594.99999,1281.8068 0,16.2673 c 0,0 -8.9104,-3.8131 -12.64457,-5.4067 l -0.0105,-0.018 0,-16.2567 0.0105,0.02 12.63332,5.4067 z"/><path fill="#f8aa3a" fill-rule="evenodd" d="m 607.64514,1276.3913 -0.0105,0.02 -12.63428,5.4075 0,16.2561 12.63428,-5.4075 0.0105,-0.02 0,-16.2561 z"/><path fill="#f8b84e" fill-rule="evenodd" d="m 594.78906,250.625 -12.44726,5.40625 0,0.0137 12.6582,5.43164 12.66602,-5.44531 -12.53516,-5.40625 -0.13086,0 -0.21094,0 z" transform="translate(0 1020.362)"/><path fill="none" stroke="#1c4d7e" stroke-linecap="round" stroke-linejoin="round" d="M603.47605 1291.035l-3.15832 1.3516-3.15833 1.3515M600.31773 1290.2248l-3.15833 1.3515"/></g><path fill="#e9eded" fill-rule="evenodd" d="m 594.04302,1280.2424 -0.0708,0.026 -11.41936,4.9376 0,6.9347 2.02734,-1 2,3 -0.002,-7.2059 11.4218,-4.9893 z"/></g><path fill="#25b39e" style="line-height:normal;text-indent:0;text-align:start;text-decoration-line:none;text-decoration-style:solid;text-decoration-color:#000;text-transform:none;block-progression:tb;isolation:auto;mix-blend-mode:normal" d="m 107.5,1973.6128 c -3.03164,0 -5.5,2.4684 -5.5,5.5 0,3.0317 2.46836,5.5 5.5,5.5 3.03164,0 5.5,-2.4683 5.5,-5.5 0,-3.0316 -2.46836,-5.5 -5.5,-5.5 z" color="#000" font-family="sans-serif" font-weight="400" overflow="visible" white-space="normal"/><path fill="#e9eded" fill-rule="evenodd" style="line-height:normal;text-indent:0;text-align:start;text-decoration-line:none;text-decoration-style:solid;text-decoration-color:#000;text-transform:none;block-progression:tb;isolation:auto;mix-blend-mode:normal" d="m 110.23597,1977.1132 a 0.50004997,0.50004997 0 0 0 -0.31055,0.1055 l -3.57812,2.705 -1.19336,-1.4492 a 0.50014205,0.50014205 0 1 0 -0.77148,0.6367 l 1.49804,1.8184 a 0.50004997,0.50004997 0 0 0 0.6875,0.082 l 3.96094,-2.9961 a 0.50004997,0.50004997 0 0 0 -0.29297,-0.9023 z" color="#000" font-family="sans-serif" font-weight="400" overflow="visible" white-space="normal"/></g></svg>