<svg xmlns="http://www.w3.org/2000/svg" width="48" height="48" viewBox="0 0 48 48"><g transform="translate(0 -1004.362)"><circle cx="24" cy="1028.362" r="24" fill="#ef4c45"/><path style="line-height:normal;text-indent:0;text-align:start;text-decoration-line:none;text-decoration-style:solid;text-decoration-color:#000;text-transform:none;block-progression:tb;isolation:auto;mix-blend-mode:normal" fill="#fff" fill-rule="evenodd" d="m 203.49736,921.35794 a 0.50005,0.50005 0 0 0 -0.34375,0.15039 l -4,4 a 0.50005,0.50005 0 0 0 -0.0234,0.0215 0.50005,0.50005 0 0 0 -0.0117,0.0137 0.50005,0.50005 0 0 0 -0.004,0.006 0.50005,0.50005 0 0 0 -0.10742,0.40234 l 0,15.91016 a 0.50005,0.50005 0 0 0 0.5,0.5 l 12.09961,0 c 0.25525,0.50149 0.58907,0.97383 1.00781,1.39258 2.14492,2.14492 5.63829,2.14258 7.78321,-0.002 2.14492,-2.14491 2.14493,-5.63437 0,-7.77929 l 0,-0.002 c -0.12517,-0.12517 -0.25681,-0.24099 -0.39063,-0.35156 l 0,-13.75781 a 0.50005,0.50005 0 0 0 -0.5,-0.49805 l 0,-0.002 -15.92968,0 a 0.50005,0.50005 0 0 0 -0.0801,-0.004 z m 0.21679,1.00391 14.58594,0 -3,3 -14.58594,0 3,-3 z m 15.29297,0.70703 0,11.89453 c -0.93447,-0.47592 -1.97784,-0.67007 -3,-0.57812 l 0,-8.31641 3,-3 z m -19,3.29297 15,0 0,8.21094 c -0.87635,0.2465 -1.70457,0.71031 -2.39258,1.39843 -1.45681,1.45682 -1.92053,3.53456 -1.39843,5.39063 l -11.20899,0 0,-15 z m 16.5,8.99414 c 1.15134,3e-4 2.30221,0.44107 3.1836,1.32226 1.76277,1.76277 1.76277,4.60442 0,6.36719 -1.76278,1.76277 -4.60636,1.76512 -6.36914,0.002 -1.76277,-1.76277 -1.76276,-4.60832 0,-6.3711 0.88139,-0.88138 2.03421,-1.32061 3.18554,-1.32031 z m -15.5,0.006 0,1 6,0 0,-1 -6,0 z m 0,2 0,1 4,0 0,-1 -4,0 z m 17.47657,0.002 a 0.50005,0.50005 0 0 0 -0.34375,0.15039 l -1.63477,1.64063 -1.64063,-1.63477 a 0.50005,0.50005 0 0 0 -0.35937,-0.15039 0.50005,0.50005 0 0 0 -0.34766,0.85938 l 1.64063,1.63476 -1.63477,1.64063 a 0.50063915,0.50063915 0 0 0 0.70899,0.70703 l 1.63476,-1.64063 1.64063,1.63477 a 0.50064268,0.50064268 0 0 0 0.70703,-0.70899 l -1.64063,-1.63476 1.63477,-1.64063 a 0.50005,0.50005 0 0 0 -0.36523,-0.85742 z" color="#000" font-family="sans-serif" font-weight="400" overflow="visible" transform="translate(-186 96.005)" white-space="normal"/></g></svg>