<svg xmlns="http://www.w3.org/2000/svg" width="32" height="32" viewBox="0 0 32 32"><g transform="translate(-454.324 -1440.993)"><g transform="translate(-168.689 417.614)"><path fill="#f8b84e" fill-rule="evenodd" d="m 643.96413,1032.0173 3.89996,-3.8999 -15.59986,0 -3.89996,3.8999 z"/><path fill="#fcd062" fill-rule="evenodd" d="m 628.36427,1032.0173 15.59986,0 0,15.5999 -15.59986,0 z"/><path fill="#f8aa3a" fill-rule="evenodd" d="m 643.96413,1047.6172 0,-15.5999 3.89996,-3.8999 0,15.5998 z"/><path fill="none" stroke="#34485c" stroke-linecap="round" stroke-linejoin="round" d="M630.87289 1041.8648l5.84995 0M630.87289 1043.8645l3.89997 0"/></g><path fill="#f05542" d="m 479.00224,1461.3035 c 1.76277,1.7628 1.76277,4.604 0,6.3667 -1.76277,1.7628 -4.60533,1.7642 -6.36811,0 -1.76277,-1.7627 -1.76277,-4.6067 0,-6.3695 1.76278,-1.7627 4.60534,-1.7614 6.36811,0 z" color="#000" font-family="sans-serif" font-weight="400" overflow="visible" white-space="normal" style="line-height:normal;text-indent:0;text-align:start;text-decoration-line:none;text-decoration-style:solid;text-decoration-color:#000;text-transform:none;block-progression:tb;isolation:auto;mix-blend-mode:normal;marker:none"/><g><path fill="#e9eded" fill-rule="evenodd" d="m 477.79752,1461.9853 a 0.50005,0.50005 0 0 0 -0.34375,0.1504 l -3.97656,3.9902 a 0.50005,0.50005 0 1 0 0.70703,0.707 l 3.97851,-3.9902 a 0.50005,0.50005 0 0 0 -0.36523,-0.8574 z" color="#000" font-family="sans-serif" font-weight="400" overflow="visible" white-space="normal" style="line-height:normal;text-indent:0;text-align:start;text-decoration-line:none;text-decoration-style:solid;text-decoration-color:#000;text-transform:none;block-progression:tb;isolation:auto;mix-blend-mode:normal"/><path fill="#e9eded" fill-rule="evenodd" style="line-height:normal;text-indent:0;text-align:start;text-decoration-line:none;text-decoration-style:solid;text-decoration-color:#000;text-transform:none;block-progression:tb;isolation:auto;mix-blend-mode:normal" d="m 473.83884,1461.9853 a 0.50005,0.50005 0 0 1 0.34375,0.1504 l 3.97656,3.9902 a 0.50005,0.50005 0 1 1 -0.70703,0.707 l -3.97851,-3.9902 a 0.50005,0.50005 0 0 1 0.36523,-0.8574 z" color="#000" font-family="sans-serif" font-weight="400" overflow="visible" white-space="normal"/></g></g></svg>