<svg id="Layer_1" data-name="Layer 1" xmlns="http://www.w3.org/2000/svg" xmlns:xlink="http://www.w3.org/1999/xlink" viewBox="0 0 823.67 597"><defs><linearGradient id="linear-gradient" x1="184.47" y1="186.62" x2="188.3" y2="176.21" gradientUnits="userSpaceOnUse"><stop offset="0.36" stop-color="#00272e"/><stop offset="0.75" stop-color="#3f80a1" stop-opacity="0.25"/><stop offset="1" stop-color="#69b9eb" stop-opacity="0"/></linearGradient><linearGradient id="linear-gradient-2" x1="343.3" y1="346.98" x2="455.64" y2="41.5" xlink:href="#linear-gradient"/><linearGradient id="linear-gradient-3" x1="393.2" y1="139.61" x2="383.08" y2="633.96" gradientUnits="userSpaceOnUse"><stop offset="0" stop-color="#68e1fd"/><stop offset="0.01" stop-color="#67ddf9"/><stop offset="0.12" stop-color="#5cb3ce"/><stop offset="0.24" stop-color="#538ea9"/><stop offset="0.37" stop-color="#4c718b"/><stop offset="0.5" stop-color="#465a73"/><stop offset="0.63" stop-color="#424a63"/><stop offset="0.79" stop-color="#404059"/><stop offset="0.99" stop-color="#3f3d56"/></linearGradient><linearGradient id="linear-gradient-4" x1="393.88" y1="139.62" x2="383.76" y2="633.98" xlink:href="#linear-gradient-3"/><linearGradient id="linear-gradient-5" x1="397.21" y1="139.69" x2="387.09" y2="634.05" xlink:href="#linear-gradient-3"/><linearGradient id="linear-gradient-6" x1="683.35" y1="150.83" x2="704.34" y2="150.83" gradientUnits="userSpaceOnUse"><stop offset="0" stop-color="#ecc4d7"/><stop offset="0.42" stop-color="#efd4d1"/><stop offset="1" stop-color="#f2eac9"/></linearGradient><linearGradient id="linear-gradient-7" x1="694.47" y1="139.15" x2="690.14" y2="187.7" xlink:href="#linear-gradient-6"/><linearGradient id="linear-gradient-8" x1="664.6" y1="121.91" x2="709.11" y2="121.91" xlink:href="#linear-gradient-6"/><linearGradient id="linear-gradient-9" x1="764.44" y1="85.12" x2="824" y2="85.12" xlink:href="#linear-gradient-6"/><linearGradient id="linear-gradient-10" x1="810.3" y1="78.07" x2="804.28" y2="31.33" xlink:href="#linear-gradient-6"/><linearGradient id="linear-gradient-11" x1="30.23" y1="-160.53" x2="89.78" y2="-160.53" gradientTransform="matrix(-0.85, -0.53, -0.53, 0.85, 595.69, 211.85)" xlink:href="#linear-gradient-6"/><linearGradient id="linear-gradient-12" x1="76.08" y1="-167.26" x2="70.06" y2="-214" gradientTransform="matrix(-0.85, -0.53, -0.53, 0.85, 595.69, 211.85)" xlink:href="#linear-gradient-6"/><linearGradient id="linear-gradient-13" x1="533.17" y1="470.11" x2="540.88" y2="502.23" xlink:href="#linear-gradient-3"/><linearGradient id="linear-gradient-14" x1="723.21" y1="491.76" x2="736.06" y2="509.74" xlink:href="#linear-gradient-3"/><linearGradient id="linear-gradient-15" x1="770.23" y1="222.33" x2="694.43" y2="178.65" gradientUnits="userSpaceOnUse"><stop offset="0"/><stop offset="0.98" stop-opacity="0"/></linearGradient></defs><title>6. New Messages</title><path d="M131.63,125c-24.34,5.16-49.64,10.76-69.18,26.17-16.5,13-42.21,37-50,56.5-33,82.37,4.31,182.6,76.73,233.86,34.06,24.11,76.51,35.78,107.12,64.16,19.36,17.95,32.92,41.71,53.52,58.21,30.1,24.09,70.74,29.42,109.2,32,26.72,1.81,54.48,2.59,79.27-7.57,17.92-7.34,33.1-19.93,48-32.34L585,473.56c15.86-13.23,30.69-34.3,51.34-34.16C822.2,440.73,834.73,222,549.48,125.12c-25.14-8.54-42.38-32.28-66-44.45-48.79-25.15-104.94-17-154.15.4C266.85,103.22,196.47,111.21,131.63,125Z" transform="translate(-0.33)" fill="#68e1fd" opacity="0.18"/><path d="M779.4,477.86c7.78.13,17.8,2.07,19,9.75.65,4-1.64,7.89-4.12,11.12C778.77,519,753.07,529.25,727.71,532s-50.92-1.1-76.24-4.22q-54.88-6.78-110.2-9c-26.22-1.06-53.8-1.72-76.38-15.08-4.19-2.47-8.31-5.56-10.32-10-4-8.83,2.32-19.58,11-23.87s18.88-3.87,28.56-3.35C589.19,471.6,684.18,477.86,779.4,477.86Z" transform="translate(-0.33)" fill="#000405" opacity="0.05"/><path d="M779.73,126.4s-33.83,43.75-40.25,51.08c-11.71,13.32-19.26,30.79-19.26,30.79l-17,72.34-19-5.07-41.31-11S657.59,225,650.48,213c-9.48-16-1.28-26,.88-32.87,4-12.73-16.43-36-16.43-36L621.84,85.5l19.76-2.64,14.34,47.53,24.57,21.93,17.5.93s13.2,2.72,22.8-1.72c9.18-4.26,41.61-40.83,41.61-40.83l13.23,12Z" transform="translate(-0.33)" fill="#68e1fd"/><path d="M617.66,200.59V461.15A24.86,24.86,0,0,1,592.79,486H203.1a24.86,24.86,0,0,1-24.86-24.87V200.59a24.85,24.85,0,0,1,24.86-24.87H592.79A24.87,24.87,0,0,1,617.66,200.59Z" transform="translate(-0.33)" fill="#68e1fd"/><path d="M610.92,183.67H184.31l3.46-2.65a6.12,6.12,0,0,1,.5-.39L391.21,25.07l6.41-4.91L604.09,178.44Z" transform="translate(-0.33)" fill="#68e1fd"/><path d="M617.66,200.59l-5.19,3.75h0l-37.79,27.37L391.21,364.6,214.76,228.71l-36.52-28.12.47-4.83a24.69,24.69,0,0,1,6.18-12.09,23.32,23.32,0,0,1,2.88-2.65,6.12,6.12,0,0,1,.5-.39,24.74,24.74,0,0,1,14.83-4.91H592.79a24.88,24.88,0,0,1,24.75,22.47A23.81,23.81,0,0,1,617.66,200.59Z" transform="translate(-0.33)" fill="#68e1fd"/><path d="M187.77,181a25,25,0,0,0-2.88,2.65h-.58Z" transform="translate(-0.33)" opacity="0.61" fill="url(#linear-gradient)"/><path d="M617.66,200.59l-5.19,3.76h0l-37.79,27.36L391.21,364.6,214.76,228.72l-36.52-28.13.47-4.82a24.73,24.73,0,0,1,6.18-12.1,25,25,0,0,1,2.88-2.65l.5-.38L391.21,25.07l6.41-4.91L604.09,178.44a24.83,24.83,0,0,1,13.45,19.76A23.61,23.61,0,0,1,617.66,200.59Z" transform="translate(-0.33)" opacity="0.61" fill="url(#linear-gradient-2)"/><path d="M574.68,181.34v50.38l-67.71,49L491.44,292,391.21,364.6,296.94,292l-14.59-11.24-67.59-52V181.34a14.77,14.77,0,0,1,14.77-14.77H559.92a14.77,14.77,0,0,1,14.76,14.77Z" transform="translate(-0.33)" fill="#fff"/><path d="M525.06,225.51h-267a5.62,5.62,0,0,1-5.62-5.62h0a5.62,5.62,0,0,1,5.62-5.62h267a5.62,5.62,0,0,1,5.62,5.62h0A5.62,5.62,0,0,1,525.06,225.51Z" transform="translate(-0.33)" fill="url(#linear-gradient-3)" style="isolation:isolate"/><path d="M525.06,258.76h-267a5.62,5.62,0,0,1-5.62-5.62h0a5.62,5.62,0,0,1,5.62-5.62h267a5.62,5.62,0,0,1,5.62,5.62h0A5.62,5.62,0,0,1,525.06,258.76Z" transform="translate(-0.33)" fill="url(#linear-gradient-4)" style="isolation:isolate"/><polygon points="506.64 280.76 491.11 292 296.61 292 282.01 280.76 506.64 280.76" fill="url(#linear-gradient-5)" style="isolation:isolate"/><polygon points="390.88 364.6 228.02 486.02 557.1 486.02 390.88 364.6" fill="#000405" opacity="0.05"/><path d="M250.73,90.2c-8.2-17.59-39-14.7-39-14.7,19-11.21,15.36-39.68,15.13-41.36,0,0,0,0,0,0,8.31,24.82,37,19.34,39.57,18.8C247.38,57.64,250.73,90.2,250.73,90.2Z" transform="translate(-0.33)" fill="#68e1fd"/><path d="M197.33,126.29c-5.21-11.18-24.8-9.34-24.8-9.34l0,0c12.4-7.37,9.59-26.34,9.59-26.34l0,.11c5.32,15.69,23.52,12.21,25.14,11.87C195.2,105.59,197.33,126.29,197.33,126.29Z" transform="translate(-0.33)" fill="#68e1fd"/><path d="M721.89,92.7A12.36,12.36,0,0,1,730.45,90a9,9,0,0,1,6.2,2.14,9.88,9.88,0,0,1,2.42,5.33,30.59,30.59,0,0,1,.55,7.46c-.22,4.59-1.41,9.45.57,13.6a9.73,9.73,0,0,0,1.88,2.66,5.23,5.23,0,0,0,3.48,1.73,2.79,2.79,0,0,0,2.86-2.24,10.62,10.62,0,0,1-16.36,3.91l1.74,3.53a20.27,20.27,0,0,1-4.16-1.58c-4.25-2.31-6.63-7-7.76-11.74-1-4.35-1.2-8.84-2.14-13.21C719,98.24,719.18,95.12,721.89,92.7Z" transform="translate(-0.33)" fill="#3f3d56"/><path d="M720.61,97.5a7,7,0,0,1,2.54.39,4,4,0,0,1,2.45,3.35,3.78,3.78,0,0,1-2.08,3.57,6.34,6.34,0,0,1-2.7.47c-.84,0-1.69,0-2.53-.08a1.47,1.47,0,0,1-.69-.17,1.52,1.52,0,0,1-.47-.67,15.11,15.11,0,0,1-1.23-3.43C715.21,97.25,717.69,97.47,720.61,97.5Z" transform="translate(-0.33)" fill="#68e1fd"/><path d="M704.34,132.61s-.16,2.89-.36,6.65c-.17,3.17-.38,7-.55,10.18a21.39,21.39,0,0,1-6.47,14.2c-2.26,2.31-7.65,6.62-11.76,5.09-2-.74-2.07-3.26-1.65-4.77a29.62,29.62,0,0,0,1.53-8.53,29.93,29.93,0,0,0-.63-7C681.87,142,704.34,132.61,704.34,132.61Z" transform="translate(-0.33)" fill="url(#linear-gradient-6)"/><path d="M704.34,132.61s-.16,2.89-.36,6.65c-1.58,3.52-3.06,6.39-3.87,7.82-1.63,2.89-8.33,7.44-15,8.35a29.93,29.93,0,0,0-.63-7C681.87,142,704.34,132.61,704.34,132.61Z" transform="translate(-0.33)" fill="url(#linear-gradient-7)"/><path d="M684.77,94.32a21.49,21.49,0,0,0-20,24.27,72.68,72.68,0,0,0,6.62,25.22c7,12,24.74,2.13,27.55-2.81s13.59-27.22,9.06-33.53C704.88,103.21,696.23,93.86,684.77,94.32Z" transform="translate(-0.33)" fill="url(#linear-gradient-8)"/><path d="M678.47,82.13a37.22,37.22,0,0,1,22.94.67c7.27,2.76,13.54,8.44,16.31,15.71a28.57,28.57,0,0,1-.64,20.7,40.44,40.44,0,0,1-13,16.43c-1.47-4.5,3.06-8.5,4.82-12.89a3.63,3.63,0,0,0,.25-2.62c-.64-1.63-3.08-1.81-4.47-.75s-2,2.85-2.51,4.52c1.35-7.15,2.35-15.55-2.71-20.79-3-3.1-7.53-4.26-11.85-4.3a29,29,0,0,0-21.19,9.11c-1.59,1.71-3.85,3.81-5.87,2.63a4,4,0,0,1-1.42-1.73C653.16,97,668.84,84.77,678.47,82.13Z" transform="translate(-0.33)" fill="#3f3d56"/><path d="M688.13,95.34c-5-2.2-10.25-4-15.68-4s-11.06,1.84-14.65,5.92a20.57,20.57,0,0,0-4,7.77,14,14,0,0,0-.7,5.54,23.88,23.88,0,0,0,1,4c.94,3.24,1.34,7-.71,9.72a4.38,4.38,0,0,1-3.34,1.86,2.72,2.72,0,0,1-2.74-2.33c-.88,2.49.56,5.41,2.85,6.72a9.36,9.36,0,0,0,7.67.37,8.31,8.31,0,0,0,2.83-1.55,9.74,9.74,0,0,0,2-2.75c2.09-3.79,3.14-8,4.7-12.09s3.82-8,7.51-10.3a19.4,19.4,0,0,1,9.54-2.37c3.31-.11,6.64.16,9.94-.14s.91-2.26-.51-3.29A31.53,31.53,0,0,0,688.13,95.34Z" transform="translate(-0.33)" fill="#3f3d56"/><path d="M822.44,59.49c.85.66-7.11,6.86-7.11,6.86s-3.72,6.41-7.5,8.19-32.18,48.15-32.18,48.15l-11.21-10.16L788.62,80s8-15.33,7.11-22c0,0,.48-7.88,2.89-4.22,1.7,2.61.61,6.72,2.62,7.16a1.09,1.09,0,0,0,.64-.14,22.63,22.63,0,0,0,4.55-3.64c4-3.81,8.78-9.11,8.78-9.11s2.62-1.11,2.29,0-5.14,8.6-5.41,9c.45-.41,7.83-7,9-6.49s-5.72,8.1-6.12,8.54c.43-.3,8.3-5.78,8.89-5.29,1.11.93-6,7.1-6.59,7.57C817.72,61.14,821.63,58.85,822.44,59.49Z" transform="translate(-0.33)" fill="url(#linear-gradient-9)"/><path d="M814,64.24a4,4,0,0,1-1.85.15,51,51,0,0,0-6.06-.1c-1.36.06-4.17,1-4.24-1.11,0-.56.14-1.11.11-1.67,0-.24-.06-.48-.1-.72a22.63,22.63,0,0,0,4.55-3.64,6.63,6.63,0,0,1,1.72.87q2,1.29,3.94,2.55c.7.46,1.4.92,2.07,1.42a1.8,1.8,0,0,1,.68.77A1.29,1.29,0,0,1,814,64.24Z" transform="translate(-0.33)" fill="url(#linear-gradient-10)"/><path d="M618.73,7.42c-1.08.12,2.42,9.58,2.42,9.58s-.22,7.41,2.05,10.91,1.95,57.15,1.95,57.15l14.88-2-3.38-40.41s1.29-17.24,5.56-22.43c0,0,3.74-6.95-.23-5.11-2.82,1.32-4.07,5.38-6,4.7a1.06,1.06,0,0,1-.47-.46,22,22,0,0,1-2-5.49c-1.41-5.35-2.65-12.37-2.65-12.37S629.26-.81,629,.3s-.17,10-.16,10.51c-.17-.57-2.95-10.09-4.25-10.26s.59,9.9.71,10.48c-.22-.48-4-9.28-4.78-9.18-1.43.21,1.41,9.23,1.62,9.9C621.86,11.31,619.75,7.32,618.73,7.42Z" transform="translate(-0.33)" fill="url(#linear-gradient-11)"/><path d="M623.37,15.91A4,4,0,0,0,624.86,17a50.74,50.74,0,0,1,5.2,3.12c1.13.77,3,3.07,4.19,1.29.32-.46.47-1,.79-1.47a6.47,6.47,0,0,1,.47-.57,22,22,0,0,1-2-5.49,6.49,6.49,0,0,0-1.92-.16l-4.69.09c-.84,0-1.68,0-2.52.11a1.79,1.79,0,0,0-1,.3A1.29,1.29,0,0,0,623.37,15.91Z" transform="translate(-0.33)" fill="url(#linear-gradient-12)"/><path d="M566,479.21c-4,8.17-6.91,14.52-6.91,14.52l-50.33,2.4s8.34-22.07,21.91-16.37c4.59,1.92,21.22-1.69,21.22-1.69l.52-1.67Z" transform="translate(-0.33)" fill="url(#linear-gradient-13)" style="isolation:isolate"/><path d="M744.38,481.68,736.67,486l-66-69.38L663.39,324l-60.18,54.59s1.61,37.59-19.43,67c-3.77,5.27-11.44,20.58-17.24,32.54-.18.37-.36.75-.53,1.12l-1.13-.23-3.93-.82-8.53-1.76,27.66-111.8,62.85-100.06,41.31,11,19,5.07s12.82,25.69,0,92.18l-8.5,38.06S729,429.16,739.56,465.3l4.81,16.36Z" transform="translate(-0.33)" fill="#3f3d56"/><path d="M744.38,481.68l7.83,8.19-19.87,20.72h-26s5.54-9.15,16.62-10.6,13.73-14,13.73-14Z" transform="translate(-0.33)" fill="url(#linear-gradient-14)" style="isolation:isolate"/><path d="M216.14,74.06l-4.39,1.44c19-11.21,15.36-39.68,15.13-41.36.3,1.35,4.72,20.14,2.31,26.31C226.18,68.16,216.14,74.06,216.14,74.06Z" transform="translate(-0.33)" fill="#fff" opacity="0.22" style="isolation:isolate"/><path d="M184.74,108.44c-2.32,3.21-11.54,8.16-12.17,8.49,12.4-7.37,9.59-26.34,9.59-26.34l0,.11C182.65,92,187,105.3,184.74,108.44Z" transform="translate(-0.33)" fill="#fff" opacity="0.22" style="isolation:isolate"/><polygon points="178.65 214.27 382.32 370.98 390.88 364.6 177.91 200.59 178.65 214.27" fill="#fff" opacity="0.22" style="isolation:isolate"/><polygon points="397.62 369.97 617.33 211.83 617.33 201.04 390.88 365.04 397.62 369.97" fill="#fff" opacity="0.22" style="isolation:isolate"/><path d="M617.54,198.64l-.6,1.68-4.47,4.47c3.14-5.42-5.73-18-5.73-18l-3.54-2.65-10.63-8L391.21,25.52l6.41-4.91L604.09,178.88A24.86,24.86,0,0,1,617.54,198.64Z" transform="translate(-0.33)" fill="#fff" opacity="0.22" style="isolation:isolate"/><path d="M779.73,126.4s-33.83,43.75-40.25,51.08c-11.71,13.32-19.26,30.79-19.26,30.79l-17,72.34-19-5.07s17.74-66.33,24.87-80.41,66.54-72.44,66.54-72.44Z" transform="translate(-0.33)" opacity="0.61" fill="url(#linear-gradient-15)"/><path d="M744.37,481.66c-.35-1-11.64-32.36-28.59-45.51-17.21-13.36-27.21-31.8-27.21-31.8-4.05-35.4-4.33-128.81-4.33-128.81l19,5.07s12.82,25.69,0,92.18l-8.5,38.06S729,429.16,739.56,465.3Z" transform="translate(-0.33)" fill="#25233a"/><path d="M603.21,378.57s1.61,37.59-19.43,67c-3.77,5.27-11.44,20.58-17.24,32.54l-1.66.89-3.93-.82h0l32.62-102.89s39.51-46.81,46.74-51.29,23.08,0,23.08,0Z" transform="translate(-0.33)" fill="#25233a"/></svg>