<svg xmlns="http://www.w3.org/2000/svg" width="32" height="32" viewBox="0 0 32 32"><g transform="translate(33 -1983.853)"><g transform="translate(-610 708.509)"><g transform="translate(50.105 124.423) scale(.90822)"><path fill="#fcd062" fill-rule="evenodd" d="m 594.99999,1281.8068 0,16.2673 c 0,0 -8.9104,-3.8131 -12.64457,-5.4067 l -0.0105,-0.018 0,-16.2567 0.0105,0.02 12.63332,5.4067 z"/><path fill="#f8aa3a" fill-rule="evenodd" d="m 607.64514,1276.3913 -0.0105,0.02 -12.63428,5.4075 0,16.2561 12.63428,-5.4075 0.0105,-0.02 0,-16.2561 z"/><path fill="#f8b84e" fill-rule="evenodd" d="m 594.78906,250.625 -12.44726,5.40625 0,0.0137 12.6582,5.43164 12.66602,-5.44531 -12.53516,-5.40625 -0.13086,0 -0.21094,0 z" transform="translate(0 1020.362)"/><path fill="none" stroke="#1c4d7e" stroke-linecap="round" stroke-linejoin="round" d="M603.47605 1291.035l-3.15832 1.3516-3.15833 1.3515M600.31773 1290.2248l-3.15833 1.3515"/></g><path fill="#e9eded" fill-rule="evenodd" d="m 594.04302,1280.2424 -0.0708,0.026 -11.41936,4.9376 0,6.9347 2.02734,-1 2,3 -0.002,-7.2059 11.4218,-4.9893 z"/></g><g transform="translate(-449.73 625.884)"><circle cx="438.287" cy="1378.392" r="3.469" fill="#e9eded" fill-opacity=".355"/><g transform="matrix(.60546 0 0 .60544 318.327 861.03)"><path fill="#25b39e" stroke="#2b4255" stroke-linejoin="round" stroke-width="1.652" d="m 205.15118,859.53188 1.71364,1.71936 1.07285,1.0763 0.91032,0.91342 0.77241,0.77499 1.48342,1.48827 c 0.53676,0.53863 0.53277,1.40975 -0.009,1.95339 -0.54425,0.5411 -1.41036,0.54728 -1.94709,0.009 l -5.95255,-5.97237"/><path fill="#f05542" stroke="#2b4255" stroke-linejoin="round" stroke-width="1.652" d="m 203.94698,857.33395 1.97904,1.98793 -2.97624,2.98305 -1.97673,-1.98564"/><ellipse cx="-462.949" cy="743.579" fill="none" stroke="#2b4255" stroke-linejoin="round" stroke-width="1.652" rx="6.387" ry="6.399" transform="matrix(.70596 -.70825 .70597 .70824 0 0)"/></g></g></g></svg>