<svg xmlns="http://www.w3.org/2000/svg" width="48" height="48" viewBox="0 0 48 48"><g transform="translate(0 -1004.362)"><circle cx="24" cy="1028.362" r="24" fill="#ffa40b" fill-rule="evenodd"/><path style="line-height:normal;text-indent:0;text-align:start;text-decoration-line:none;text-decoration-style:solid;text-decoration-color:#000;text-transform:none;block-progression:tb;isolation:auto;mix-blend-mode:normal;marker:none" fill="#fff" d="m 14.166016,1.9335938 a 0.50011976,0.49998025 0 0 0 -0.0059,0.00195 0.50011976,0.49998025 0 0 0 -0.01953,0.00195 0.50011976,0.49998025 0 0 0 -0.160156,0.039063 L 2.4179688,6.921875 A 0.50011976,0.49998025 0 0 0 2.0507812,7.1933594 0.50011976,0.49998025 0 0 0 2.0429688,7.2089844 0.50011976,0.49998025 0 0 0 2,7.5371094 L 2,22.423828 a 0.50020964,0.5000701 0 0 0 0.00391,0.05859 0.50011976,0.49998025 0 0 0 0.3085938,0.419922 l 11.5957032,4.957031 a 0.50011976,0.49998025 0 0 0 0.279297,0.08008 0.50011976,0.49998025 0 0 0 0.285156,-0.08203 l 8.636719,-3.69336 4.689453,4.689454 A 0.50004999,0.50005 0 0 0 28.152344,29 0.50004999,0.50005 0 0 0 28.505859,28.853516 l 1.41211,-1.414063 a 0.50004999,0.50005 0 0 0 0.123047,-0.511719 0.50004999,0.50005 0 0 0 -0.123047,-0.195312 l -3.837891,-3.839844 a 0.50011976,0.49998025 0 0 0 0.28711,-0.380859 0.50020998,0.50007045 0 0 0 0.0098,-0.08789 l 0,-14.9042968 A 0.50011976,0.49998025 0 0 0 26.339844,7.2265625 0.50011976,0.49998025 0 0 0 25.951172,6.9199219 L 14.394531,1.9765625 a 0.50011976,0.49998025 0 0 0 -0.128906,-0.037109 0.50011976,0.49998025 0 0 0 -0.04883,-0.00391 0.50011976,0.49998025 0 0 0 -0.01563,-0.00195 l 0,0.00195 a 0.50011976,0.49998025 0 0 0 -0.03516,-0.00195 z M 14.1875,2.9785156 16.638672,4.0253906 6.2480469,8.4667969 A 0.50040858,0.50026899 0 0 0 6.21875,8.4824219 L 3.7675781,7.4335938 14.1875,2.9785156 Z m 3.720703,1.5898438 2.976563,1.2734375 -10.582032,4.5253911 A 0.50045046,0.50031086 0 0 0 10.001953,10.886719 0.50011976,0.49998025 0 0 0 10,10.933594 L 10,16.283203 8.9160156,14.65625 A 0.50011976,0.49998025 0 0 0 8.2753906,14.488281 L 7,15.126953 7,9.2363281 17.908203,4.5683594 Z M 22.15625,6.3828125 24.611328,7.4316406 14.1875,11.890625 11.736328,10.841797 22.125,6.3984375 a 0.50011976,0.49998025 0 0 0 0.03125,-0.015625 z M 3,8.1914062 6,9.4746094 6,15.935547 a 0.50011976,0.49998025 0 0 0 0.7246094,0.445312 l 1.6054687,-0.802734 1.7304689,2.597656 a 0.50020966,0.50007013 0 0 0 0.04101,0.0625 0.50011976,0.49998025 0 0 0 0.0098,0.01367 0.50020966,0.50007013 0 0 0 0.0059,0.0059 A 0.50011976,0.49998025 0 0 0 11,17.835938 l 0,-6.220704 2.6875,1.148438 0,13.916016 L 3,22.107422 3,8.1914062 Z m 22.375,0 0,13.9160158 c -0.01856,0.0079 -0.03826,0.01559 -0.05664,0.02344 l -0.896484,-0.896484 c 0.360957,-0.691188 0.583983,-1.465215 0.583984,-2.296875 5.1e-5,-2.757169 -2.244567,-5.001953 -5.001953,-5.001953 -2.757385,0 -5.003957,2.244784 -5.003906,5.001953 2e-6,0.914247 0.264551,1.761232 0.695312,2.5 a 0.50040864,0.50026905 0 0 0 0.292969,0.455078 c 0.21053,0.285052 0.451874,0.540903 0.716797,0.775391 l -0.707031,0.302734 a 0.50149341,0.50135352 0 0 0 0.394531,0.921875 l 1.28711,-0.550781 c 0.697798,0.370296 1.481399,0.599609 2.324218,0.599609 0.831935,0 1.605842,-0.224519 2.296875,-0.585937 l 0.04687,0.04687 -7.660156,3.277344 0,-13.916016 10.6875,-4.5722658 z m -5.371094,6.7441408 c 2.216713,0 4.003948,1.78501 4.003906,4.001953 -3e-6,2.216852 -1.787226,4.003906 -4.003906,4.003906 -0.3606,0 -0.703151,-0.06359 -1.035156,-0.152344 l 0.337891,-0.144531 2.917968,-1.248047 a 0.50011976,0.49998025 0 0 0 -0.214843,-0.960937 0.50011976,0.49998025 0 0 0 -0.177735,0.04297 l -2.917969,1.246093 -1.185546,0.50586 c -0.253699,-0.17522 -0.477211,-0.385492 -0.683594,-0.613282 l 2.261719,-0.96875 A 0.50011976,0.49998025 0 0 0 19.09375,19.6875 0.50011976,0.49998025 0 0 0 18.914062,19.72852 l -2.449218,1.048828 C 16.177496,20.224507 16.000001,19.605497 16,18.9375 c -4.1e-5,-2.216943 1.787194,-4.001953 4.003906,-4.001953 z m 3.904297,7.201172 4.949219,4.949219 -0.705078,0.705078 -4.951172,-4.949219 0.707031,-0.705078 z" color="#000" font-family="sans-serif" font-weight="400" overflow="visible" transform="translate(9.01 1013.429)" white-space="normal"/></g></svg>